{
    "asset" : {
        "generator" : "Khronos glTF Blender I/O v3.4.50",
        "version" : "2.0"
    },
    "scene" : 0,
    "scenes" : [
        {
            "name" : "Scene",
            "nodes" : [
                0
            ]
        }
    ],
    "nodes" : [
        {
            "mesh" : 0,
            "name" : "polySurface27"
        }
    ],
    "materials" : [
        {
            "doubleSided" : true,
            "emissiveFactor" : [
                1,
                1,
                1
            ],
            "emissiveTexture" : {
                "index" : 0
            },
            "name" : "Sel_Red.001",
            "pbrMetallicRoughness" : {
                "baseColorTexture" : {
                    "index" : 1
                },
                "metallicRoughnessTexture" : {
                    "index" : 2
                }
            }
        },
        {
            "doubleSided" : true,
            "name" : "Sel_Yellow.001",
            "pbrMetallicRoughness" : {
                "baseColorTexture" : {
                    "index" : 3
                },
                "metallicRoughnessTexture" : {
                    "index" : 4
                }
            }
        },
        {
            "doubleSided" : true,
            "name" : "Sel_ORange.001",
            "pbrMetallicRoughness" : {
                "baseColorTexture" : {
                    "index" : 5
                },
                "metallicRoughnessTexture" : {
                    "index" : 6
                }
            }
        },
        {
            "doubleSided" : true,
            "name" : "Sel_Green.001",
            "pbrMetallicRoughness" : {
                "baseColorTexture" : {
                    "index" : 7
                },
                "metallicRoughnessTexture" : {
                    "index" : 8
                }
            }
        },
        {
            "doubleSided" : true,
            "name" : "Sel_Cyan.001",
            "normalTexture" : {
                "index" : 9
            },
            "pbrMetallicRoughness" : {
                "baseColorTexture" : {
                    "index" : 10
                },
                "metallicRoughnessTexture" : {
                    "index" : 11
                }
            }
        }
    ],
    "meshes" : [
        {
            "name" : "Mesh.028",
            "primitives" : [
                {
                    "attributes" : {
                        "POSITION" : 0,
                        "TEXCOORD_0" : 1,
                        "NORMAL" : 2
                    },
                    "indices" : 3,
                    "material" : 0
                },
                {
                    "attributes" : {
                        "POSITION" : 4,
                        "TEXCOORD_0" : 5,
                        "NORMAL" : 6
                    },
                    "indices" : 7,
                    "material" : 1
                },
                {
                    "attributes" : {
                        "POSITION" : 8,
                        "TEXCOORD_0" : 9,
                        "NORMAL" : 10
                    },
                    "indices" : 11,
                    "material" : 2
                },
                {
                    "attributes" : {
                        "POSITION" : 12,
                        "TEXCOORD_0" : 13,
                        "NORMAL" : 14
                    },
                    "indices" : 15,
                    "material" : 3
                },
                {
                    "attributes" : {
                        "POSITION" : 16,
                        "TEXCOORD_0" : 17,
                        "NORMAL" : 18
                    },
                    "indices" : 19,
                    "material" : 4
                }
            ]
        }
    ],
    "textures" : [
        {
            "sampler" : 0,
            "source" : 0
        },
        {
            "sampler" : 0,
            "source" : 1
        },
        {
            "sampler" : 0,
            "source" : 2
        },
        {
            "sampler" : 0,
            "source" : 3
        },
        {
            "sampler" : 0,
            "source" : 4
        },
        {
            "sampler" : 0,
            "source" : 5
        },
        {
            "sampler" : 0,
            "source" : 6
        },
        {
            "sampler" : 0,
            "source" : 7
        },
        {
            "sampler" : 0,
            "source" : 8
        },
        {
            "sampler" : 0,
            "source" : 9
        },
        {
            "sampler" : 0,
            "source" : 10
        },
        {
            "sampler" : 0,
            "source" : 11
        }
    ],
    "images" : [
        {
            "bufferView" : 4,
            "mimeType" : "image/jpeg",
            "name" : "drone001_Sel_Red_Emissive"
        },
        {
            "bufferView" : 5,
            "mimeType" : "image/jpeg",
            "name" : "drone001_Sel_Red_BaseColor"
        },
        {
            "bufferView" : 6,
            "mimeType" : "image/png",
            "name" : "drone001_Sel_Red_OcclusionRoughnessMetallic-drone001_Sel_Red_Oc"
        },
        {
            "bufferView" : 11,
            "mimeType" : "image/jpeg",
            "name" : "drone001_Sel_Yellow_BaseColor"
        },
        {
            "bufferView" : 12,
            "mimeType" : "image/png",
            "name" : "drone001_Sel_Yellow_OcclusionRoughnessMetallic-drone001_Sel_Yel"
        },
        {
            "bufferView" : 17,
            "mimeType" : "image/jpeg",
            "name" : "drone001_Sel_ORange_BaseColor"
        },
        {
            "bufferView" : 18,
            "mimeType" : "image/png",
            "name" : "drone001_Sel_ORange_OcclusionRoughnessMetallic-drone001_Sel_ORa"
        },
        {
            "bufferView" : 23,
            "mimeType" : "image/jpeg",
            "name" : "drone001_Sel_Green_BaseColor"
        },
        {
            "bufferView" : 24,
            "mimeType" : "image/png",
            "name" : "drone001_Sel_Green_OcclusionRoughnessMetallic-drone001_Sel_Gree"
        },
        {
            "bufferView" : 29,
            "mimeType" : "image/jpeg",
            "name" : "drone001_Sel_Cyan_Normal"
        },
        {
            "bufferView" : 30,
            "mimeType" : "image/jpeg",
            "name" : "drone001_Sel_Cyan_BaseColor"
        },
        {
            "bufferView" : 31,
            "mimeType" : "image/png",
            "name" : "drone001_Sel_Cyan_OcclusionRoughnessMetallic"
        }
    ],
    "accessors" : [
        {
            "bufferView" : 0,
            "componentType" : 5126,
            "count" : 1204,
            "max" : [
                10.628944396972656,
                6.3330912590026855,
                10.668376922607422
            ],
            "min" : [
                -10.566183090209961,
                4.835055828094482,
                -10.670537948608398
            ],
            "type" : "VEC3"
        },
        {
            "bufferView" : 1,
            "componentType" : 5126,
            "count" : 1204,
            "type" : "VEC2"
        },
        {
            "bufferView" : 2,
            "componentType" : 5126,
            "count" : 1204,
            "type" : "VEC3"
        },
        {
            "bufferView" : 3,
            "componentType" : 5123,
            "count" : 1788,
            "type" : "SCALAR"
        },
        {
            "bufferView" : 7,
            "componentType" : 5126,
            "count" : 2320,
            "max" : [
                2.922201156616211,
                5.417599678039551,
                3.157790422439575
            ],
            "min" : [
                -9.567266464233398,
                0.11200523376464844,
                -3.070880889892578
            ],
            "type" : "VEC3"
        },
        {
            "bufferView" : 8,
            "componentType" : 5126,
            "count" : 2320,
            "type" : "VEC2"
        },
        {
            "bufferView" : 9,
            "componentType" : 5126,
            "count" : 2320,
            "type" : "VEC3"
        },
        {
            "bufferView" : 10,
            "componentType" : 5123,
            "count" : 4056,
            "type" : "SCALAR"
        },
        {
            "bufferView" : 13,
            "componentType" : 5126,
            "count" : 2611,
            "max" : [
                9.927484512329102,
                5.425877094268799,
                9.66946029663086
            ],
            "min" : [
                -2.508033275604248,
                5.039063453674316,
                -9.671619415283203
            ],
            "type" : "VEC3"
        },
        {
            "bufferView" : 14,
            "componentType" : 5126,
            "count" : 2611,
            "type" : "VEC2"
        },
        {
            "bufferView" : 15,
            "componentType" : 5126,
            "count" : 2611,
            "type" : "VEC3"
        },
        {
            "bufferView" : 16,
            "componentType" : 5123,
            "count" : 5904,
            "type" : "SCALAR"
        },
        {
            "bufferView" : 19,
            "componentType" : 5126,
            "count" : 9234,
            "max" : [
                2.7093658447265625,
                4.415062427520752,
                2.960892915725708
            ],
            "min" : [
                -2.6979613304138184,
                0.23765087127685547,
                -2.6666488647460938
            ],
            "type" : "VEC3"
        },
        {
            "bufferView" : 20,
            "componentType" : 5126,
            "count" : 9234,
            "type" : "VEC2"
        },
        {
            "bufferView" : 21,
            "componentType" : 5126,
            "count" : 9234,
            "type" : "VEC3"
        },
        {
            "bufferView" : 22,
            "componentType" : 5123,
            "count" : 13560,
            "type" : "SCALAR"
        },
        {
            "bufferView" : 25,
            "componentType" : 5126,
            "count" : 1286,
            "max" : [
                2.6607015132904053,
                5.524003028869629,
                2.9498281478881836
            ],
            "min" : [
                -2.6607000827789307,
                0.20259809494018555,
                -2.6607017517089844
            ],
            "type" : "VEC3"
        },
        {
            "bufferView" : 26,
            "componentType" : 5126,
            "count" : 1286,
            "type" : "VEC2"
        },
        {
            "bufferView" : 27,
            "componentType" : 5126,
            "count" : 1286,
            "type" : "VEC3"
        },
        {
            "bufferView" : 28,
            "componentType" : 5123,
            "count" : 1440,
            "type" : "SCALAR"
        }
    ],
    "bufferViews" : [
        {
            "buffer" : 0,
            "byteLength" : 14448,
            "byteOffset" : 0,
            "target" : 34962
        },
        {
            "buffer" : 0,
            "byteLength" : 9632,
            "byteOffset" : 14448,
            "target" : 34962
        },
        {
            "buffer" : 0,
            "byteLength" : 14448,
            "byteOffset" : 24080,
            "target" : 34962
        },
        {
            "buffer" : 0,
            "byteLength" : 3576,
            "byteOffset" : 38528,
            "target" : 34963
        },
        {
            "buffer" : 0,
            "byteLength" : 17011,
            "byteOffset" : 42104
        },
        {
            "buffer" : 0,
            "byteLength" : 63688,
            "byteOffset" : 59116
        },
        {
            "buffer" : 0,
            "byteLength" : 299500,
            "byteOffset" : 122804
        },
        {
            "buffer" : 0,
            "byteLength" : 27840,
            "byteOffset" : 422304,
            "target" : 34962
        },
        {
            "buffer" : 0,
            "byteLength" : 18560,
            "byteOffset" : 450144,
            "target" : 34962
        },
        {
            "buffer" : 0,
            "byteLength" : 27840,
            "byteOffset" : 468704,
            "target" : 34962
        },
        {
            "buffer" : 0,
            "byteLength" : 8112,
            "byteOffset" : 496544,
            "target" : 34963
        },
        {
            "buffer" : 0,
            "byteLength" : 66516,
            "byteOffset" : 504656
        },
        {
            "buffer" : 0,
            "byteLength" : 364944,
            "byteOffset" : 571172
        },
        {
            "buffer" : 0,
            "byteLength" : 31332,
            "byteOffset" : 936116,
            "target" : 34962
        },
        {
            "buffer" : 0,
            "byteLength" : 20888,
            "byteOffset" : 967448,
            "target" : 34962
        },
        {
            "buffer" : 0,
            "byteLength" : 31332,
            "byteOffset" : 988336,
            "target" : 34962
        },
        {
            "buffer" : 0,
            "byteLength" : 11808,
            "byteOffset" : 1019668,
            "target" : 34963
        },
        {
            "buffer" : 0,
            "byteLength" : 73044,
            "byteOffset" : 1031476
        },
        {
            "buffer" : 0,
            "byteLength" : 150514,
            "byteOffset" : 1104520
        },
        {
            "buffer" : 0,
            "byteLength" : 110808,
            "byteOffset" : 1255036,
            "target" : 34962
        },
        {
            "buffer" : 0,
            "byteLength" : 73872,
            "byteOffset" : 1365844,
            "target" : 34962
        },
        {
            "buffer" : 0,
            "byteLength" : 110808,
            "byteOffset" : 1439716,
            "target" : 34962
        },
        {
            "buffer" : 0,
            "byteLength" : 27120,
            "byteOffset" : 1550524,
            "target" : 34963
        },
        {
            "buffer" : 0,
            "byteLength" : 150731,
            "byteOffset" : 1577644
        },
        {
            "buffer" : 0,
            "byteLength" : 333818,
            "byteOffset" : 1728376
        },
        {
            "buffer" : 0,
            "byteLength" : 15432,
            "byteOffset" : 2062196,
            "target" : 34962
        },
        {
            "buffer" : 0,
            "byteLength" : 10288,
            "byteOffset" : 2077628,
            "target" : 34962
        },
        {
            "buffer" : 0,
            "byteLength" : 15432,
            "byteOffset" : 2087916,
            "target" : 34962
        },
        {
            "buffer" : 0,
            "byteLength" : 2880,
            "byteOffset" : 2103348,
            "target" : 34963
        },
        {
            "buffer" : 0,
            "byteLength" : 28957,
            "byteOffset" : 2106228
        },
        {
            "buffer" : 0,
            "byteLength" : 129549,
            "byteOffset" : 2135188
        },
        {
            "buffer" : 0,
            "byteLength" : 139711,
            "byteOffset" : 2264740
        }
    ],
    "samplers" : [
        {
            "magFilter" : 9729,
            "minFilter" : 9987
        }
    ],
    "buffers" : [
        {
            "byteLength" : 2404452,
            "uri" : "data:application/octet-stream;base64,"
        }
    ]
}
